<?xml version="1.0" encoding="utf-8"?>
<!-- Generator: Adobe Illustrator 18.1.1, SVG Export Plug-In . SVG Version: 6.00 Build 0)  -->
<svg version="1.1" id="Layer_1" xmlns="http://www.w3.org/2000/svg" xmlns:xlink="http://www.w3.org/1999/xlink" x="0px" y="0px"
	 viewBox="0 0 768 397.2" enable-background="new 0 0 768 397.2" xml:space="preserve">
<path fill="#FF6D63" d="M712.1,183.8c-4.5-17.3-26.1-27.2-44.5-26c-4.8,0.3-9.3,1.3-13.6,2.7c-1.1-17.4-14.6-32-32.7-32
	c-8.1,0-16.6,3.4-22.5,9c-3.4-9-10.5-18.1-24.4-24.3c-20-9-51.6-4.6-69.9,27.9c-0.6,1.1-1.6,1.9-2.8,2.3
	c-18.5,5.8-33.5,23.4-32.6,43.4c0.7,15.8,8.7,30,21.1,38.2c1.5,1,2.4,2.7,2.3,4.5c-1,19.8,4.5,39.6,19.2,54.1
	c12.4,12.3,28.4,16.9,44.6,16.3c1.6-0.1,3.2,0.7,4.2,2c1.2,1.6,2.4,3,3.6,4.2c7.9,7.9,20.8,13.8,32.1,13.3
	c11.7-0.5,23.9-4.4,32.1-13.3c6.6-7.2,9.9-14.6,11.8-23.3c0.5-2.4,2.7-4.1,5.2-3.9c1.6,0.1,3.1,0.2,4.7,0.3
	C672.9,280.2,739.3,288.4,712.1,183.8z"/>
<path fill="#FDCB32" d="M404.3,161.5c-11.4-19-31.1-34.2-53-38.9c-12.6-2.7-25.3-3.1-37.8-1.3c-4.7-5-10.1-9.5-15.5-12.6
	c-30.4-18-70.2-10.9-97.1,9.8c-25.9,20-40.1,50.4-35.7,83.3c3,22.1,15.3,42.4,35,53.8c1.7,1,3.4,1.9,5.1,2.7
	c-0.9,11.5,0.9,22.8,7,33.2c6.8,11.6,20.1,22.6,33.4,25.7c14.3,3.3,30.4,2.6,43-5.6c11.8-7.6,22.8-19.2,25.7-33.4
	c0.2-1,0.4-2,0.6-2.9c5.7,0.7,11.4,1,17,0.7c15.5-1.1,26.3-3.8,40.1-10.2c12.7-5.9,22.2-16.1,30-27.3
	C417.7,216.3,418,184.5,404.3,161.5z"/>
<circle fill="#78D89C" cx="414.3" cy="318.3" r="20.9"/>
<circle fill="#78D89C" cx="122.7" cy="143" r="10.8"/>
<circle fill="#F22E47" cx="104.6" cy="253.8" r="10.8"/>
<circle fill="#F22E47" cx="509.5" cy="311.9" r="10.8"/>
<circle fill="#F22E47" cx="358.5" cy="99.1" r="6.8"/>
<g>
	<path fill="#FFFFFF" d="M547.7,170.1c22,0,34.5,13.6,34.5,30.3c0,20.3-9.7,27.7-29.6,34.8c-7.1,2.4-15.4,3.5-15.4,6.8v0.8h37.5
		c4.2,0,5.6,1.4,5.6,5.6v11c0,4.1-1.4,5.5-5.6,5.5h-58.8c-4.2,0-5.6-1.4-5.6-5.5v-10.5c0-17.8,13.2-23.9,25.4-29.2
		c10.5-4.4,20.1-8.2,20.1-18.2c0-5-3.3-8.6-8.9-8.6c-5.5,0-8.5,2.5-11.4,8.6c-1.8,4.1-3.1,4.8-7.1,3.5l-13.9-5.1
		c-3.8-1.4-5-3.3-3.4-7.1C516.6,179.4,527.6,170.1,547.7,170.1z"/>
	<path fill="#FFFFFF" d="M616.2,250.4v5.4c0,7.7-2.5,10.2-10.2,10.2h-5c-7.8,0-10.3-2.5-10.3-10.2v-5.4c0-7.7,2.5-10.3,10.3-10.3h5
		C613.7,240,616.2,242.7,616.2,250.4z"/>
	<path fill="#FFFFFF" d="M662.5,170.1c23.7,0,37.3,13.2,37.3,34v28.6c0,21.1-13.6,34.1-37.3,34.1s-37.3-13.1-37.3-34.1v-28.6
		C625.2,183.3,638.8,170.1,662.5,170.1z M662.5,193c-7.1,0-11.4,3.7-11.4,10.1v30.7c0,6.5,4.3,10.2,11.4,10.2s11.4-3.7,11.4-10.2
		V203C673.9,196.6,669.6,193,662.5,193z"/>
</g>
<circle cx="260.8" cy="229.4" r="3.4"/>
<line fill="none" stroke="#000000" stroke-width="1.816" stroke-linecap="round" stroke-linejoin="round" stroke-miterlimit="10" x1="487.2" y1="89.4" x2="510" y2="51.2"/>
<line fill="none" stroke="#000000" stroke-width="1.816" stroke-linecap="round" stroke-linejoin="round" stroke-miterlimit="10" x1="407.5" y1="167.6" x2="438.2" y2="116"/>
<line fill="none" stroke="#000000" stroke-width="1.816" stroke-linecap="round" stroke-linejoin="round" stroke-miterlimit="10" x1="556.3" y1="155.4" x2="486.3" y2="89.7"/>
<path fill="none" stroke="#000000" stroke-width="1.816" stroke-miterlimit="10" d="M274.6,220.5"/>
<line fill="none" stroke="#000000" stroke-width="1.816" stroke-miterlimit="10" x1="294.8" y1="371.9" x2="414.7" y2="315.7"/>
<line fill="none" stroke="#000000" stroke-width="1.816" stroke-miterlimit="10" x1="414.7" y1="315.7" x2="483.6" y2="318.4"/>
<line fill="none" stroke="#000000" stroke-width="1.816" stroke-miterlimit="10" x1="407" y1="290.2" x2="414.7" y2="315.7"/>
<line fill="none" stroke="#000000" stroke-width="1.816" stroke-linecap="round" stroke-linejoin="round" stroke-miterlimit="10" x1="407.5" y1="167.6" x2="392.4" y2="170.4"/>
<path fill="none" stroke="#000000" stroke-width="1.816" stroke-miterlimit="10" d="M85.9,273.9"/>
<path fill="none" stroke="#000000" stroke-width="1.816" stroke-miterlimit="10" d="M40.5,168.4"/>
<path fill="none" stroke="#000000" stroke-width="1.816" stroke-miterlimit="10" d="M274.1,221.8"/>
<line fill="none" stroke="#000000" stroke-width="1.816" stroke-linecap="round" stroke-linejoin="round" stroke-miterlimit="10" x1="230.3" y1="337.3" x2="249.6" y2="286.4"/>
<line fill="none" stroke="#000000" stroke-width="1.816" stroke-linecap="round" stroke-linejoin="round" stroke-miterlimit="10" x1="85.9" y1="273.9" x2="230.3" y2="337.3"/>
<line fill="none" stroke="#000000" stroke-width="1.816" stroke-miterlimit="10" x1="40.5" y1="168.4" x2="85.9" y2="178.8"/>
<line fill="none" stroke="#000000" stroke-width="1.816" stroke-linecap="round" stroke-linejoin="round" stroke-miterlimit="10" x1="192.7" y1="51.2" x2="105" y2="164.2"/>
<line fill="none" stroke="#000000" stroke-width="1.816" stroke-linecap="round" stroke-linejoin="round" stroke-miterlimit="10" x1="298.5" y1="157.5" x2="425.1" y2="82.9"/>
<line fill="none" stroke="#000000" stroke-width="1.816" stroke-linecap="round" stroke-linejoin="round" stroke-miterlimit="10" x1="237.5" y1="27.8" x2="226.1" y2="121.2"/>
<circle cx="232.1" cy="74.1" r="11.8"/>
<circle cx="105" cy="103.2" r="11.8"/>
<circle cx="320.3" cy="318.5" r="9.2"/>
<circle fill="#FFFFFF" stroke="#242426" stroke-width="3.0476" stroke-miterlimit="10" cx="400.5" cy="96.7" r="10.2"/>
<circle fill="#FFFFFF" stroke="#242426" stroke-width="1.9486" stroke-miterlimit="10" cx="485.8" cy="89.4" r="6.5"/>
<circle fill="#FFFFFF" stroke="#242426" stroke-width="1.9486" stroke-miterlimit="10" cx="249.7" cy="291" r="6.5"/>
<line fill="none" stroke="#000000" stroke-width="1.816" stroke-miterlimit="10" x1="592.7" y1="291" x2="538.3" y2="303"/>
<line fill="none" stroke="#000000" stroke-width="1.816" stroke-linecap="round" stroke-linejoin="round" stroke-miterlimit="10" x1="78.6" y1="41.4" x2="121.3" y2="143.1"/>
<line fill="none" stroke="#242426" stroke-width="1.816" stroke-linecap="round" stroke-linejoin="round" stroke-miterlimit="10" x1="332.4" y1="137.5" x2="338.9" y2="56.8"/>
<g>
	<path d="M98.8,217.9c-4-4.6-6.1-10.3-6.1-16.8c0-6.4,2-11.9,6.1-16.5c4-4.6,8.9-6.9,14.7-6.9c4.7,0,8.8,1.4,12.1,4.2
		c3.3,2.9,5,6.3,5,10.3h-4.1c0-2.9-1.3-5.3-3.8-7.4c-2.5-2-5.6-3.1-9.2-3.1c-4.6,0-8.5,1.9-11.8,5.6c-3.2,3.8-4.8,8.4-4.8,13.7
		c0,5.5,1.6,10.2,4.8,14.1c3.3,3.9,7.2,5.8,11.8,5.8c3.6,0,6.6-1.1,9-3.2c2.5-2.1,3.8-4.6,3.8-7.6h4.3c0,4-1.7,7.5-5,10.4
		c-3.4,2.9-7.4,4.3-12.1,4.3C107.7,224.9,102.8,222.5,98.8,217.9z"/>
	<path d="M139.7,222.9v-43.6h3.6v43.6H139.7z"/>
	<path d="M156.7,222.9v-43.7h4.1v7.4c1.2-2.6,3.1-4.6,5.6-6.2c2.5-1.6,5.3-2.4,8.4-2.4c4.3,0,8,1.4,11,4.2c3.1,2.9,4.6,6.3,4.6,10.3
		v30.4h-4.1v-30.4c0-3-1.1-5.6-3.4-7.7c-2.3-2.1-5-3.2-8.1-3.2c-3.4,0-6.5,1.2-9.1,3.5c-2.7,2.4-4.3,5.4-4.9,8.9v28.8H156.7z"/>
	<path d="M205.6,218.1c-3.6-4.3-5.3-10-5.3-17s1.8-12.7,5.3-17c3.6-4.2,8.3-6.4,14.2-6.4c5.9,0,10.6,1.9,14.2,5.8
		c3.6,3.9,5.3,9.1,5.3,15.6v1.9h-34.9v4c0,4.3,1.5,8,4.5,11c3,3.1,6.6,4.6,10.9,4.6c3.5,0,6.6-0.9,9.4-2.8c2.9-1.9,4.9-4.4,5.9-7.5
		h4.1c-0.7,4-2.9,7.4-6.6,10.1c-3.7,2.7-8,4-12.9,4C213.8,224.5,209.1,222.3,205.6,218.1z M235.1,197.2v-1.5c-0.3-4-2-7.5-4.9-10.3
		c-3-2.7-6.5-4.1-10.5-4.1c-4,0-7.4,1.4-10.4,4.2c-3,2.9-4.7,6.4-5,10.6v1.1H235.1z M222.3,159.1h6.3l-7,15.6h-2.9L222.3,159.1z"/>
	<circle cx="141.3" cy="167.7" r="3.2"/>
</g>
<g>
	<path stroke="#000000" stroke-width="3.632" stroke-linecap="round" stroke-linejoin="round" stroke-miterlimit="10" d="
		M268.2,179.1c6.9,0,13.4,4.1,13.4,11.6c0,7.6-6.5,11.6-13.4,11.6h-14.8v21.9h-1.3v-45.1H268.2z M268.2,201
		c6.2,0,12.1-3.5,12.1-10.3c0-6.7-5.9-10.3-12.1-10.3h-14.8V201H268.2z"/>
	<path stroke="#000000" stroke-width="3.632" stroke-linecap="round" stroke-linejoin="round" stroke-miterlimit="10" d="M320,224.2
		h-1.3v-21.9h-26.9v21.9h-1.3v-45.1h1.3V201h26.9v-21.9h1.3V224.2z"/>
	<path stroke="#000000" stroke-width="3.632" stroke-linecap="round" stroke-linejoin="round" stroke-miterlimit="10" d="
		M333.7,224.2h-1.3v-45.1h1.3V224.2z"/>
	<path stroke="#000000" stroke-width="3.632" stroke-linecap="round" stroke-linejoin="round" stroke-miterlimit="10" d="
		M373.4,224.2h-27.3v-45.1h1.3v43.8h26V224.2z"/>
	<path stroke="#000000" stroke-width="3.632" stroke-linecap="round" stroke-linejoin="round" stroke-miterlimit="10" d="
		M383.2,224.2h-1.3v-45.1h1.3V224.2z"/>
	<path stroke="#000000" stroke-width="3.632" stroke-linecap="round" stroke-linejoin="round" stroke-miterlimit="10" d="
		M422.9,224.2h-27.3v-45.1h27.3v1.3h-26V201h22.9v1.3H397v20.6h26V224.2z"/>
	<path stroke="#000000" stroke-width="3.632" stroke-linecap="round" stroke-linejoin="round" stroke-miterlimit="10" d="
		M459.8,189.3c-1.8-6.4-6.9-9.5-13.3-9.5c-6.6,0-12.3,3.9-12.3,10.9c0,14.8,27.7,5.4,27.7,22c0,8.9-7,12.2-14.8,12.2
		c-8.1,0-14.2-3.5-16.7-11.5l1.2-0.4c2.4,7.4,7.9,10.6,15.4,10.6c7.1,0,13.5-2.7,13.5-10.8c0-15.4-27.7-5.8-27.7-22
		c0-7.7,6.3-12.2,13.6-12.2c7.1,0,12.6,3.5,14.6,10.5L459.8,189.3z"/>
</g>
<g>
	<path d="M147.8,280c-3.3-2.7-4.9-6.1-4.9-9.9h3.8c0,2.9,1.3,5.5,3.8,7.6c2.5,2.1,5.6,3.1,9.1,3.1c4.1,0,7.4-0.9,9.9-2.8
		c2.5-1.9,3.7-4.4,3.7-7.5c0-2.3-1.3-4.3-3.9-5.9c-2.6-1.6-6.1-2.6-10.5-3c-4.7-0.4-8.3-1.7-11.1-3.9c-2.8-2.2-4.2-4.9-4.2-8.1
		c0-3.6,1.4-6.4,4.2-8.4c2.8-2,6.7-3,11.8-3c4.9,0,8.7,1.1,11.6,3.2c2.9,2.1,4.4,5,4.4,8.5h-3.9c-0.5-2.7-1.8-4.8-3.9-6.3
		c-2.1-1.5-4.9-2.3-8.2-2.3c-3.7,0-6.6,0.8-8.8,2.3c-2.2,1.5-3.3,3.5-3.3,5.9c0,2.3,1.3,4.3,4,5.9c2.6,1.6,6.1,2.6,10.5,3
		c4.6,0.4,8.3,1.8,11.1,4.1c2.7,2.3,4.1,5.2,4.1,8.7c0,3.9-1.6,7-4.8,9.3c-3.1,2.3-7.4,3.5-12.7,3.5
		C154.9,284.1,151,282.8,147.8,280z"/>
	<path d="M189.3,278.2c-3.6-4.3-5.3-10-5.3-17c0-7,1.8-12.7,5.3-17c3.6-4.2,8.3-6.4,14.2-6.4c5.9,0,10.6,1.9,14.2,5.8
		c3.6,3.9,5.3,9.1,5.3,15.6v1.9h-34.9v4c0,4.3,1.5,8,4.5,11c3,3.1,6.6,4.6,10.9,4.6c3.5,0,6.6-0.9,9.4-2.8c2.9-1.9,4.9-4.4,5.9-7.5
		h4.1c-0.7,4-2.9,7.4-6.6,10.1c-3.7,2.7-8,4-12.9,4C197.6,284.5,192.9,282.4,189.3,278.2z M218.9,257.3v-1.5c-0.3-4-2-7.5-4.9-10.3
		c-3-2.7-6.5-4.1-10.5-4.1c-4,0-7.4,1.4-10.4,4.2c-3,2.9-4.7,6.4-5,10.6v1.1H218.9z"/>
	<path d="M232.6,283v-43.7h4.1v9.8c1.2-3.1,2.9-5.7,5.1-7.7c2.3-1.9,4.8-2.9,7.4-2.9h2.4v4.7c-0.2,0-0.4-0.1-0.7-0.2
		c-0.2-0.1-0.3-0.2-0.4-0.2c-3.2,0-6.1,1.4-8.7,4.1c-2.6,2.7-4.3,6.2-5,10.4V283H232.6z"/>
	<path d="M258.8,283v-43.7h4.1V283H258.8z"/>
</g>
<g>
	<path stroke="#000000" stroke-width="3.632" stroke-linecap="round" stroke-linejoin="round" stroke-miterlimit="10" d="
		M292.4,238.2c6.9,0,13.4,4.1,13.4,11.6c0,7.6-6.5,11.6-13.4,11.6h-14.8v21.9h-1.3v-45.1H292.4z M292.4,260.1
		c6.2,0,12.1-3.5,12.1-10.3c0-6.7-5.9-10.3-12.1-10.3h-14.8v20.6H292.4z"/>
	<path stroke="#000000" stroke-width="3.632" stroke-linecap="round" stroke-linejoin="round" stroke-miterlimit="10" d="
		M344.2,283.3h-1.3v-21.9H316v21.9h-1.3v-45.1h1.3v21.9h26.9v-21.9h1.3V283.3z"/>
	<path stroke="#000000" stroke-width="3.632" stroke-linecap="round" stroke-linejoin="round" stroke-miterlimit="10" d="
		M357.9,283.3h-1.3v-45.1h1.3V283.3z"/>
	<path stroke="#000000" stroke-width="3.632" stroke-linecap="round" stroke-linejoin="round" stroke-miterlimit="10" d="
		M397.6,283.3h-27.3v-45.1h1.3V282h26V283.3z"/>
	<path stroke="#000000" stroke-width="3.632" stroke-linecap="round" stroke-linejoin="round" stroke-miterlimit="10" d="
		M407.4,283.3h-1.3v-45.1h1.3V283.3z"/>
	<path stroke="#000000" stroke-width="3.632" stroke-linecap="round" stroke-linejoin="round" stroke-miterlimit="10" d="
		M447.1,283.3h-27.3v-45.1h27.3v1.3h-26v20.6H444v1.3h-22.9V282h26V283.3z"/>
	<path stroke="#000000" stroke-width="3.632" stroke-linecap="round" stroke-linejoin="round" stroke-miterlimit="10" d="
		M484.1,248.4c-1.8-6.4-6.9-9.5-13.3-9.5c-6.6,0-12.3,3.9-12.3,10.9c0,14.8,27.7,5.4,27.7,22c0,8.9-7,12.2-14.8,12.2
		c-8.1,0-14.2-3.5-16.7-11.5l1.2-0.4c2.4,7.4,7.9,10.6,15.4,10.6c7.1,0,13.5-2.7,13.5-10.8c0-15.4-27.7-5.8-27.7-22
		c0-7.7,6.3-12.2,13.6-12.2c7.1,0,12.6,3.5,14.6,10.5L484.1,248.4z"/>
</g>
<circle fill="#FFFFFF" stroke="#242426" stroke-width="1.9486" stroke-miterlimit="10" cx="592.9" cy="291" r="6.5"/>
<polygon stroke="#000000" stroke-width="1.816" stroke-linecap="round" stroke-linejoin="round" stroke-miterlimit="10" points="
	209.6,219.5 212.3,220.8 205.3,234.8 202.4,234.8 "/>
</svg>
